<svg width="32" height="36" viewBox="0 0 32 36" fill="none" xmlns="http://www.w3.org/2000/svg">
<path d="M30.3814 24.6648C30.2517 24.5086 30.1244 24.3523 29.9994 24.2016C28.2806 22.1227 27.2408 20.868 27.2408 14.9828C27.2408 11.9359 26.5119 9.43594 25.0752 7.56094C24.0158 6.17578 22.5837 5.125 20.6962 4.34844C20.672 4.33493 20.6503 4.3172 20.6322 4.29609C19.9533 2.02266 18.0955 0.5 16.0002 0.5C13.9048 0.5 12.0478 2.02266 11.3689 4.29375C11.3508 4.31408 11.3294 4.33125 11.3056 4.34453C6.90093 6.15781 4.76031 9.63672 4.76031 14.9805C4.76031 20.868 3.72203 22.1227 2.00171 24.1992C1.87671 24.35 1.74937 24.5031 1.61968 24.6625C1.28468 25.0665 1.07243 25.558 1.00805 26.0789C0.943671 26.5997 1.02985 27.1281 1.2564 27.6016C1.73843 28.6172 2.76578 29.2477 3.93843 29.2477H28.0705C29.2376 29.2477 30.258 28.618 30.7416 27.607C30.9691 27.1335 31.0561 26.6047 30.9922 26.0832C30.9284 25.5617 30.7164 25.0695 30.3814 24.6648ZM16.0002 35.5C17.1291 35.4991 18.2367 35.1926 19.2056 34.6132C20.1745 34.0337 20.9684 33.2028 21.5033 32.2086C21.5285 32.1609 21.5409 32.1076 21.5394 32.0537C21.5379 31.9998 21.5225 31.9473 21.4946 31.9011C21.4668 31.855 21.4275 31.8168 21.3806 31.7903C21.3336 31.7638 21.2806 31.7499 21.2267 31.75H10.7752C10.7212 31.7498 10.6681 31.7636 10.621 31.79C10.574 31.8164 10.5346 31.8546 10.5067 31.9008C10.4787 31.947 10.4632 31.9996 10.4617 32.0535C10.4601 32.1075 10.4726 32.1609 10.4978 32.2086C11.0326 33.2027 11.8264 34.0335 12.7952 34.613C13.7639 35.1924 14.8713 35.4989 16.0002 35.5Z" fill="#911A1D"/>
</svg>
