<svg width="12" height="12" viewBox="0 0 12 12" fill="none" xmlns="http://www.w3.org/2000/svg">
<path d="M4.46353 4.9067C4.49115 4.72395 4.55192 4.56335 4.62925 4.43043C4.79498 4.1203 5.07671 3.9597 5.45788 3.95416C5.70647 3.95416 5.93296 4.06492 6.09316 4.22552C6.24784 4.3972 6.3528 4.63534 6.3528 4.87348H7.34715C7.3361 4.61319 7.28638 4.37505 7.18142 4.15353C7.09856 3.94308 6.9715 3.75479 6.80578 3.59973C6.00477 2.85763 4.51877 2.96285 3.8393 3.80463C3.12668 4.72949 3.11011 6.34659 3.83377 7.27145C4.5022 8.09662 5.9661 8.21291 6.76158 7.47635C6.93283 7.3379 7.07094 7.16622 7.18142 6.96685C7.26981 6.76749 7.33057 6.55704 7.3361 6.32998H6.3528C6.3528 6.44628 6.31413 6.5515 6.26441 6.64565C6.21469 6.75087 6.1484 6.83394 6.07659 6.90594C5.89429 7.04993 5.67885 7.12746 5.44683 7.12746C5.24796 7.12192 5.08224 7.08315 4.95518 7.00008C4.81197 6.91936 4.69789 6.7953 4.62925 6.64565C4.35305 6.14722 4.39724 5.45497 4.46353 4.9067ZM5.52417 0C2.48588 0 0 2.49212 0 5.53804C0.292781 12.887 10.7721 12.8815 11.0483 5.53804C11.0483 2.49212 8.56246 0 5.52417 0ZM5.52417 9.96847C3.08801 9.96847 1.10483 7.98032 1.10483 5.53804C1.3479 -0.33782 9.70044 -0.33782 9.94351 5.53804C9.94351 7.98032 7.96033 9.96847 5.52417 9.96847Z" fill="white"/>
</svg>
