<svg width="13" height="14" viewBox="0 0 13 14" fill="none" xmlns="http://www.w3.org/2000/svg">
<path fill-rule="evenodd" clip-rule="evenodd" d="M8.52546 9.36823C8.36164 9.53209 8.13958 9.62412 7.90805 9.62412C7.67651 9.62412 7.45445 9.53209 7.29063 9.36823L3.99503 6.06889C3.83121 5.90475 3.7392 5.68215 3.73926 5.45006C3.73931 5.21798 3.83142 4.99542 3.99533 4.83135C4.15923 4.66728 4.3815 4.57514 4.61324 4.5752C4.84498 4.57525 5.0672 4.6675 5.23103 4.83164L7.90805 7.51264L10.5851 4.83164C10.7498 4.67218 10.9704 4.58388 11.1995 4.58576C11.4286 4.58765 11.6478 4.67956 11.8098 4.84172C11.9719 5.00388 12.0639 5.2233 12.066 5.45272C12.0681 5.68214 11.9801 5.90321 11.8211 6.06831L8.52604 9.36881L8.52546 9.36823Z" fill="#911A1D"/>
</svg>
