<svg width="30" height="30" viewBox="0 0 30 30" fill="none" xmlns="http://www.w3.org/2000/svg">
<path d="M14.9212 4.71222C12.3376 4.71222 10.2432 7.15747 10.2432 10.1738C10.2432 12.2658 11.2506 14.0826 12.7299 15L11.0145 15.795L6.44948 17.9122C6.00848 18.1328 5.78838 18.5067 5.78838 19.0359V24.0635C5.82465 24.692 6.2018 25.2779 6.81328 25.2878H23.0538C23.7519 25.2271 24.105 24.6648 24.1119 24.0635V19.0359C24.1119 18.5067 23.8918 18.1328 23.4508 17.9122L19.0511 15.795L17.2227 14.9288C18.6413 13.9908 19.5992 12.2132 19.5992 10.1739C19.5992 7.15747 17.5047 4.71222 14.9212 4.71222ZM7.37558 6.63282C6.26375 6.67504 5.3826 7.15614 4.71315 7.92272C3.97265 8.84567 3.61165 9.94147 3.60468 11.0316C3.65015 12.6435 4.3714 14.1695 5.6554 14.9677L0.529075 17.3499C0.17625 17.4822 0 17.7909 0 18.276V22.311C0.02755 22.8461 0.3054 23.2959 0.826375 23.3036H4.23348V19.0359C4.28985 17.8949 4.82565 16.9727 5.78838 16.5226L9.19455 14.9022C9.45915 14.7478 9.71282 14.538 9.95537 14.2734C8.55097 12.1065 8.35595 9.51114 9.26105 7.22839C8.67237 6.86812 8.0108 6.63659 7.37558 6.63282ZM22.5902 6.63282C21.8631 6.64804 21.1912 6.91579 20.6392 7.29392C21.5197 9.59734 21.2768 12.1943 19.9772 14.2069C20.2639 14.5377 20.5623 14.7913 20.871 14.9678L24.1452 16.5226C25.1426 17.0697 25.6569 18.0001 25.6668 19.0359V23.3036H29.1727C29.7493 23.2538 29.995 22.7939 30 22.311V18.2761C30 17.835 29.8238 17.5264 29.4709 17.3499L24.4102 14.9345C25.7226 13.9668 26.3816 12.5165 26.3944 11.0316C26.3595 9.85627 26.0005 8.76497 25.2859 7.92272C24.5392 7.11274 23.6131 6.64139 22.5902 6.63282Z" fill="#911A1D"/>
</svg>
