<svg width="30" height="30" viewBox="0 0 30 30" fill="none" xmlns="http://www.w3.org/2000/svg">
<path d="M14.9212 4.7124C12.3376 4.7124 10.2432 7.15765 10.2432 10.174C10.2432 12.266 11.2506 14.0828 12.7299 15.0002L11.0145 15.7952L6.44948 17.9124C6.00848 18.133 5.78838 18.5069 5.78838 19.0361V24.0637C5.82465 24.6922 6.2018 25.2781 6.81328 25.288H23.0538C23.7519 25.2273 24.105 24.665 24.1119 24.0637V19.0361C24.1119 18.5069 23.8918 18.133 23.4508 17.9124L19.0511 15.7952L17.2227 14.929C18.6413 13.991 19.5992 12.2134 19.5992 10.1741C19.5992 7.15765 17.5047 4.7124 14.9212 4.7124ZM7.37558 6.633C6.26375 6.67523 5.3826 7.15633 4.71315 7.9229C3.97265 8.84585 3.61165 9.94165 3.60468 11.0318C3.65015 12.6437 4.3714 14.1697 5.6554 14.9679L0.529075 17.3501C0.17625 17.4824 0 17.7911 0 18.2762V22.3112C0.02755 22.8463 0.3054 23.2961 0.826375 23.3038H4.23348V19.0361C4.28985 17.8951 4.82565 16.9729 5.78838 16.5228L9.19455 14.9024C9.45915 14.748 9.71282 14.5382 9.95537 14.2736C8.55097 12.1067 8.35595 9.51133 9.26105 7.22858C8.67237 6.8683 8.0108 6.63678 7.37558 6.633ZM22.5902 6.633C21.8631 6.64823 21.1912 6.91598 20.6392 7.2941C21.5197 9.59753 21.2768 12.1945 19.9772 14.2071C20.2639 14.5379 20.5623 14.7915 20.871 14.968L24.1452 16.5228C25.1426 17.0699 25.6569 18.0003 25.6668 19.0361V23.3038H29.1727C29.7493 23.254 29.995 22.7941 30 22.3112V18.2763C30 17.8352 29.8238 17.5266 29.4709 17.3501L24.4102 14.9347C25.7226 13.967 26.3816 12.5167 26.3944 11.0318C26.3595 9.85645 26.0005 8.76515 25.2859 7.9229C24.5392 7.11293 23.6131 6.64158 22.5902 6.633Z" fill="white"/>
</svg>
