<svg width="81" height="80" viewBox="0 0 81 80" fill="none" xmlns="http://www.w3.org/2000/svg">
<path d="M40.5008 58C38.4957 58.0004 36.564 57.2433 35.0904 55.8793C33.6168 54.5154 32.7095 52.6448 32.5491 50.64C27.23 48.7515 22.7472 45.0389 19.8918 40.1574C17.0364 35.276 15.992 29.5397 16.9432 23.9611C17.8943 18.3824 20.7797 13.3202 25.09 9.66793C29.4003 6.01567 34.8584 4.00824 40.5008 4C46.5021 3.99913 52.2846 6.26035 56.7017 10.3353C61.1188 14.4103 63.848 20.0014 64.3481 26C64.3648 26.2602 64.3273 26.521 64.2381 26.7659C64.1488 27.0108 64.0098 27.2344 63.8298 27.4225C63.6498 27.6106 63.4327 27.759 63.1924 27.8585C62.9521 27.9579 62.6938 28.0061 62.434 28C61.9001 27.9857 61.3905 27.7733 61.0037 27.4038C60.617 27.0344 60.3806 26.5342 60.3403 26C59.9852 22.4633 58.6967 19.0855 56.6076 16.2143C54.5186 13.3431 51.7043 11.0822 48.4547 9.66435C45.2051 8.24654 41.6374 7.72305 38.119 8.14778C34.6007 8.5725 31.2587 9.9301 28.4372 12.0808C25.6158 14.2315 23.4167 17.0976 22.0664 20.384C20.7162 23.6704 20.2635 27.2584 20.7551 30.7786C21.2466 34.2988 22.6646 37.624 24.863 40.4119C27.0615 43.1998 29.9609 45.3496 33.2629 46.64C33.8637 45.3378 34.8026 44.2217 35.9813 43.4085C37.16 42.5954 38.5349 42.1152 39.9622 42.0183C41.3895 41.9213 42.8164 42.2112 44.0936 42.8576C45.3708 43.5039 46.4512 44.4829 47.2215 45.6919C47.9919 46.901 48.4238 48.2956 48.4722 49.7297C48.5205 51.1638 48.1834 52.5845 47.4962 53.843C46.809 55.1015 45.797 56.1514 44.5663 56.8828C43.3356 57.6141 41.9314 58 40.5008 58ZM20.5975 48H20.9604C23.3154 50.3156 26.0601 52.1952 29.0677 53.552C29.9517 56.4778 31.9158 58.9548 34.5588 60.4773C37.2019 61.9999 40.3246 62.4532 43.2895 61.7446C46.2544 61.0361 48.838 59.2192 50.5127 56.6649C52.1874 54.1105 52.827 51.0113 52.3009 48H60.44C62.5553 48 64.584 48.8429 66.0797 50.3431C67.5754 51.8434 68.4157 53.8783 68.4157 56C68.4157 62.764 65.0938 67.864 59.9017 71.188C54.7893 74.456 47.8983 76 40.5008 76C33.1034 76 26.2124 74.456 21.1 71.188C15.9078 67.868 12.5859 62.76 12.5859 56C12.5859 51.548 16.187 48 20.5975 48ZM56.4522 28C56.4542 30.7068 55.771 33.3697 54.4667 35.7393C53.1624 38.1089 51.2797 40.1076 48.9949 41.548C47.8838 40.4219 46.5608 39.5284 45.1027 38.9194C43.6446 38.3103 42.0803 37.9978 40.5008 38C38.9213 37.9976 37.357 38.31 35.8988 38.9191C34.4407 39.5281 33.1177 40.4218 32.0067 41.548C28.9801 39.6345 26.6803 36.7586 25.4746 33.38C24.8599 31.6534 24.5469 29.8334 24.5495 28C24.5495 23.7565 26.23 19.6869 29.2215 16.6863C32.213 13.6857 36.2703 12 40.5008 12C44.7314 12 48.7887 13.6857 51.7802 16.6863C54.7716 19.6869 56.4522 23.7565 56.4522 28Z" fill="#911A1D"/>
</svg>
