<svg width="48" height="48" viewBox="0 0 48 48" fill="none" xmlns="http://www.w3.org/2000/svg">
<rect width="48" height="48" rx="24" fill="#FF6B6B"/>
<g clip-path="url(#clip0_675_8030)">
<path d="M33.4312 22.1976C33.548 22.8688 33.6061 23.5489 33.605 24.2301C33.605 27.2726 32.5175 29.8451 30.625 31.5864H30.6275C28.9725 33.1151 26.6975 34.0001 24 34.0001C21.3478 34.0001 18.8043 32.9465 16.9289 31.0712C15.0536 29.1958 14 26.6523 14 24.0001C14 21.3479 15.0536 18.8044 16.9289 16.929C18.8043 15.0537 21.3478 14.0001 24 14.0001C26.4822 13.9725 28.879 14.9049 30.69 16.6026L27.835 19.4576C26.8028 18.4742 25.4255 17.9355 24 17.9576C21.3913 17.9576 19.175 19.7176 18.385 22.0876C17.9669 23.3296 17.9669 24.6744 18.385 25.9164H18.3888C19.1825 28.2826 21.395 30.0426 24.0037 30.0426C25.3513 30.0426 26.5088 29.6976 27.4062 29.0876H27.4025C27.9237 28.7425 28.3696 28.2952 28.7131 27.773C29.0567 27.2507 29.2908 26.6642 29.4012 26.0489H24V22.1989L33.4312 22.1976Z" fill="white"/>
</g>
<defs>
<clipPath id="clip0_675_8030">
<rect width="20" height="20" fill="white" transform="translate(14 14)"/>
</clipPath>
</defs>
</svg>
