<svg width="22" height="21" viewBox="0 0 22 21" fill="none" xmlns="http://www.w3.org/2000/svg">
<path d="M14.8684 5.16492C14.2758 4.48839 13.9492 3.61958 13.9495 2.72021H11.2707V13.47C11.2501 14.0517 11.0045 14.6027 10.5856 15.007C10.1668 15.4112 9.60749 15.6372 9.0254 15.6373C7.79438 15.6373 6.77142 14.6316 6.77142 13.3833C6.77142 11.8922 8.2105 10.7739 9.69293 11.2333V8.49387C6.70207 8.09509 4.08398 10.4184 4.08398 13.3833C4.08398 16.2701 6.47667 18.3247 9.01673 18.3247C11.7388 18.3247 13.9495 16.1141 13.9495 13.3833V7.93038C15.0357 8.71047 16.3399 9.12901 17.6772 9.12672V6.44795C17.6772 6.44795 16.0474 6.52597 14.8684 5.16492Z" fill="#911A1D"/>
</svg>
