<svg width="100" height="100" viewBox="0 0 100 100" fill="none" xmlns="http://www.w3.org/2000/svg">
<path fill-rule="evenodd" clip-rule="evenodd" d="M17.5753 17.05C16.667 18.8333 16.667 21.1667 16.667 25.8333V28.3917L91.6253 21.575C91.5462 19.5417 91.3337 18.1833 90.7587 17.05C89.9597 15.4821 88.6849 14.2073 87.117 13.4083C85.3337 12.5 83.0003 12.5 78.3337 12.5H30.0003C25.3337 12.5 23.0003 12.5 21.217 13.4083C19.649 14.2073 18.3743 15.4821 17.5753 17.05ZM91.667 29.9417L71.3962 31.7833L81.8378 87.4792C84.3045 87.425 85.8503 87.2375 87.117 86.5917C88.6849 85.7927 89.9597 84.518 90.7587 82.95C91.667 81.1667 91.667 78.8333 91.667 74.1667V29.9417ZM73.367 87.5L63.0587 32.5417L16.667 36.7583V74.1667C16.667 78.8333 16.667 81.1667 17.5753 82.95C18.3743 84.518 19.649 85.7927 21.217 86.5917C23.0003 87.5 25.3337 87.5 30.0003 87.5H73.367ZM56.2503 62.625C56.2503 71.6167 47.3337 77.9333 43.4462 80.2625C42.9092 80.5863 42.294 80.7573 41.667 80.7573C41.04 80.7573 40.4248 80.5863 39.8878 80.2625C36.0003 77.9333 27.0837 71.6167 27.0837 62.6208C27.0837 53.8 34.1503 47.9167 41.667 47.9167C49.4462 47.9167 56.2503 53.8 56.2503 62.625Z" fill="#911A1D"/>
<path d="M41.6667 66.6667C43.9679 66.6667 45.8333 64.8012 45.8333 62.5C45.8333 60.1988 43.9679 58.3333 41.6667 58.3333C39.3655 58.3333 37.5 60.1988 37.5 62.5C37.5 64.8012 39.3655 66.6667 41.6667 66.6667Z" fill="#911A1D"/>
</svg>
