<svg width="22" height="22" viewBox="0 0 22 22" fill="none" xmlns="http://www.w3.org/2000/svg">
<path d="M3.10938 9.93618C3.10938 6.57089 3.10937 4.8878 4.15528 3.84278C5.2003 2.79687 6.88339 2.79688 10.2487 2.79688H12.0335C15.3988 2.79688 17.0819 2.79687 18.1269 3.84278C19.1728 4.8878 19.1728 6.57089 19.1728 9.93618V11.721C19.1728 15.0863 19.1728 16.7694 18.1269 17.8144C17.0819 18.8603 15.3988 18.8603 12.0335 18.8603H10.2487C6.88339 18.8603 5.2003 18.8603 4.15528 17.8144C3.10937 16.7694 3.10938 15.0863 3.10938 11.721V9.93618Z" stroke="#911A1D" stroke-width="2"/>
<path d="M15.157 8.15136C15.8963 8.15136 16.4956 7.55204 16.4956 6.81274C16.4956 6.07344 15.8963 5.47412 15.157 5.47412C14.4177 5.47412 13.8184 6.07344 13.8184 6.81274C13.8184 7.55204 14.4177 8.15136 15.157 8.15136Z" fill="#911A1D"/>
<path d="M11.1411 13.5058C12.6197 13.5058 13.8183 12.3072 13.8183 10.8286C13.8183 9.35001 12.6197 8.15137 11.1411 8.15137C9.66251 8.15137 8.46387 9.35001 8.46387 10.8286C8.46387 12.3072 9.66251 13.5058 11.1411 13.5058Z" stroke="#911A1D" stroke-width="2"/>
</svg>
