<svg width="160" height="160" viewBox="0 0 160 160" fill="none" xmlns="http://www.w3.org/2000/svg">
<path fill-rule="evenodd" clip-rule="evenodd" d="M80.0004 140C90.8395 140.001 101.477 137.066 110.781 131.506C120.086 125.946 127.711 117.97 132.846 108.424C137.98 98.8784 140.434 88.12 139.944 77.2919C139.455 66.4638 136.042 55.9704 130.067 46.9267L82.367 99.9267C80.139 102.403 77.0648 103.955 73.7495 104.278C70.4343 104.602 67.1181 103.672 64.4537 101.673L42.667 85.3333C41.2525 84.2725 40.3174 82.6931 40.0674 80.9428C39.8173 79.1925 40.2728 77.4145 41.3337 76C42.3946 74.5855 43.9739 73.6504 45.7242 73.4003C47.4746 73.1503 49.2525 73.6058 50.667 74.6667L72.4537 91.0067L121.427 36.6C114.332 29.8274 105.686 24.8973 96.2437 22.2415C86.8019 19.5856 76.8529 19.285 67.2679 21.3658C57.6829 23.4467 48.7542 27.8456 41.2635 34.1774C33.7728 40.5092 27.9486 48.5809 24.3009 57.6856C20.6531 66.7903 19.293 76.6505 20.3397 86.4027C21.3864 96.155 24.8079 105.502 30.3046 113.625C35.8014 121.749 43.2058 128.4 51.8695 132.998C60.5332 137.597 70.1921 140.001 80.0004 140Z" fill="#911A1D"/>
</svg>
