<svg width="24" height="24" viewBox="0 0 24 24" fill="none" xmlns="http://www.w3.org/2000/svg">
<g clip-path="url(#clip0_440_44920)">
<path d="M23.1429 2.57129H0.857143C0.383036 2.57129 0 2.95432 0 3.42843V20.5713C0 21.0454 0.383036 21.4284 0.857143 21.4284H23.1429C23.617 21.4284 24 21.0454 24 20.5713V3.42843C24 2.95432 23.617 2.57129 23.1429 2.57129ZM22.0714 5.53915V19.4999H1.92857V5.53915L1.18929 4.96325L2.24196 3.61057L3.38839 4.50254H20.6143L21.7607 3.61057L22.8134 4.96325L22.0714 5.53915ZM20.6143 4.49986L12 11.1963L3.38571 4.49986L2.23929 3.6079L1.18661 4.96057L1.92589 5.53647L11.0759 12.6508C11.339 12.8552 11.6628 12.9662 11.996 12.9662C12.3292 12.9662 12.6529 12.8552 12.9161 12.6508L22.0714 5.53915L22.8107 4.96325L21.758 3.61057L20.6143 4.49986Z" fill="black"/>
</g>
<defs>
<clipPath id="clip0_440_44920">
<rect width="24" height="24" fill="white"/>
</clipPath>
</defs>
</svg>
