<svg width="23" height="23" viewBox="0 0 23 23" fill="none" xmlns="http://www.w3.org/2000/svg">
<path d="M4.01551 19.0899C3.51066 19.0899 3.07863 18.9103 2.71942 18.5511C2.36021 18.1919 2.1803 17.7595 2.17969 17.2541V6.23914C2.17969 5.73429 2.3596 5.30226 2.71942 4.94305C3.07924 4.58384 3.51127 4.40393 4.01551 4.40332H18.7021C19.2069 4.40332 19.6393 4.58323 19.9991 4.94305C20.3589 5.30287 20.5385 5.7349 20.5379 6.23914V17.2541C20.5379 17.7589 20.3583 18.1913 19.9991 18.5511C19.6399 18.9109 19.2075 19.0905 18.7021 19.0899H4.01551ZM11.3588 12.6645L4.01551 8.07496V17.2541H18.7021V8.07496L11.3588 12.6645ZM11.3588 10.8287L18.7021 6.23914H4.01551L11.3588 10.8287ZM4.01551 8.07496V6.23914V17.2541V8.07496Z" fill="white"/>
</svg>
