<svg width="80" height="80" viewBox="0 0 80 80" fill="none" xmlns="http://www.w3.org/2000/svg">
<path d="M13.3337 66.6667C11.5003 66.6667 9.93144 66.0144 8.62699 64.71C7.32255 63.4055 6.66921 61.8355 6.66699 60V20C6.66699 18.1667 7.32033 16.5978 8.62699 15.2933C9.93366 13.9889 11.5025 13.3356 13.3337 13.3333H66.667C68.5003 13.3333 70.0703 13.9867 71.377 15.2933C72.6837 16.6 73.3359 18.1689 73.3337 20V60C73.3337 61.8333 72.6814 63.4033 71.377 64.71C70.0725 66.0167 68.5025 66.6689 66.667 66.6667H13.3337ZM40.0003 43.3333L66.667 26.6667V20L40.0003 36.6667L13.3337 20V26.6667L40.0003 43.3333Z" fill="#911A1D"/>
</svg>
