<svg width="18" height="18" viewBox="0 0 18 18" fill="none" xmlns="http://www.w3.org/2000/svg">
<path d="M13.7405 13.7279H3.75296V5.78019H13.7405M11.6003 0.722534V2.16758H5.89314V0.722534H4.46635V2.16758H3.75296C2.96109 2.16758 2.32617 2.81062 2.32617 3.61262V13.7279C2.32617 14.1112 2.47649 14.4787 2.74407 14.7497C3.01164 15.0207 3.37455 15.173 3.75296 15.173H13.7405C14.1189 15.173 14.4818 15.0207 14.7493 14.7497C15.0169 14.4787 15.1672 14.1112 15.1672 13.7279V3.61262C15.1672 3.22937 15.0169 2.86182 14.7493 2.59082C14.4818 2.31982 14.1189 2.16758 13.7405 2.16758H13.0271V0.722534M12.3137 8.67028H8.74671V12.2829H12.3137V8.67028Z" fill="black"/>
</svg>
