<svg width="23" height="23" viewBox="0 0 23 23" fill="none" xmlns="http://www.w3.org/2000/svg">
<path d="M9.71547 14.1175L14.3471 11.4402L9.71547 8.76301V14.1175ZM20.0318 7.1299C20.1478 7.54933 20.2281 8.11155 20.2816 8.82548C20.3441 9.53941 20.3709 10.1552 20.3709 10.6906L20.4244 11.4402C20.4244 13.3946 20.2816 14.8314 20.0318 15.7506C19.8087 16.5538 19.2911 17.0714 18.4879 17.2945C18.0685 17.4105 17.301 17.4908 16.123 17.5444C14.9629 17.6068 13.9009 17.6336 12.9192 17.6336L11.5003 17.6871C7.76109 17.6871 5.43189 17.5444 4.51271 17.2945C3.70954 17.0714 3.19194 16.5538 2.96883 15.7506C2.85282 15.3312 2.7725 14.7689 2.71896 14.055C2.65649 13.3411 2.62972 12.7253 2.62972 12.1899L2.57617 11.4402C2.57617 9.48587 2.71896 8.04908 2.96883 7.1299C3.19194 6.32672 3.70954 5.80912 4.51271 5.58602C4.93214 5.47001 5.69962 5.38969 6.8776 5.33615C8.03774 5.27368 9.09971 5.2469 10.0814 5.2469L11.5003 5.19336C15.2395 5.19336 17.5687 5.33615 18.4879 5.58602C19.2911 5.80912 19.8087 6.32672 20.0318 7.1299Z" fill="white"/>
</svg>
