<svg width="26" height="26" viewBox="0 0 26 26" fill="none" xmlns="http://www.w3.org/2000/svg">
<path d="M19.391 18.8381C19.1093 17.9715 18.2968 17.3324 17.3327 17.3324H16.2493V14.0826C16.2493 13.7953 16.1352 13.5197 15.932 13.3166C15.7289 13.1134 15.4533 12.9993 15.166 12.9993H8.66602V10.8327H10.8327C11.12 10.8327 11.3955 10.7186 11.5987 10.5154C11.8019 10.3123 11.916 10.0368 11.916 9.74945V7.58289H14.0827C14.6573 7.58289 15.2084 7.35463 15.6147 6.94832C16.0211 6.54201 16.2493 5.99094 16.2493 5.41634V4.97219C17.5455 5.49473 18.6958 6.32355 19.6016 7.38772C20.5075 8.45189 21.142 9.71971 21.4508 11.0826C21.7596 12.4456 21.7335 13.8631 21.3748 15.2137C21.0161 16.5644 20.3354 17.808 19.391 18.8381ZM11.916 21.5897C7.63685 21.0589 4.33268 17.4191 4.33268 12.9993C4.33268 12.3276 4.41935 11.6777 4.56018 11.0602L9.74935 16.2491V17.3324C9.74935 17.907 9.97762 18.4581 10.384 18.8644C10.7903 19.2707 11.3414 19.4989 11.916 19.4989M12.9993 2.1665C11.5767 2.1665 10.168 2.4467 8.85361 2.9911C7.53925 3.5355 6.34499 4.33343 5.33903 5.33935C3.30738 7.37089 2.16602 10.1262 2.16602 12.9993C2.16602 15.8723 3.30738 18.6277 5.33903 20.6592C6.34499 21.6651 7.53925 22.4631 8.85361 23.0075C10.168 23.5519 11.5767 23.8321 12.9993 23.8321C15.8725 23.8321 18.628 22.6907 20.6597 20.6592C22.6913 18.6277 23.8327 15.8723 23.8327 12.9993C23.8327 11.5767 23.5525 10.168 23.008 8.85376C22.4636 7.53946 21.6656 6.34527 20.6597 5.33935C19.6537 4.33343 18.4594 3.5355 17.1451 2.9911C15.8307 2.4467 14.422 2.1665 12.9993 2.1665Z" fill="white"/>
</svg>
