<svg width="23" height="23" viewBox="0 0 23 23" fill="none" xmlns="http://www.w3.org/2000/svg">
<path d="M9.69985 14.1175L14.3315 11.4402L9.69985 8.76301V14.1175ZM20.0161 7.1299C20.1322 7.54933 20.2125 8.11155 20.266 8.82548C20.3285 9.53941 20.3553 10.1552 20.3553 10.6906L20.4088 11.4402C20.4088 13.3946 20.266 14.8314 20.0161 15.7506C19.793 16.5538 19.2754 17.0714 18.4723 17.2945C18.0528 17.4105 17.2854 17.4908 16.1074 17.5444C14.9472 17.6068 13.8853 17.6336 12.9036 17.6336L11.4847 17.6871C7.74547 17.6871 5.41627 17.5444 4.49708 17.2945C3.69391 17.0714 3.17631 16.5538 2.95321 15.7506C2.83719 15.3312 2.75688 14.7689 2.70333 14.055C2.64086 13.3411 2.61409 12.7253 2.61409 12.1899L2.56055 11.4402C2.56055 9.48587 2.70333 8.04908 2.95321 7.1299C3.17631 6.32672 3.69391 5.80912 4.49708 5.58602C4.91652 5.47001 5.68399 5.38969 6.86198 5.33615C8.02211 5.27368 9.08408 5.2469 10.0657 5.2469L11.4847 5.19336C15.2239 5.19336 17.5531 5.33615 18.4723 5.58602C19.2754 5.80912 19.793 6.32672 20.0161 7.1299Z" fill="#911A1D"/>
</svg>
