<svg width="23" height="23" viewBox="0 0 23 23" fill="none" xmlns="http://www.w3.org/2000/svg">
<path d="M11.5003 8.75C10.771 8.75 10.0715 9.03973 9.55578 9.55546C9.04006 10.0712 8.75033 10.7707 8.75033 11.5C8.75033 12.2293 9.04006 12.9288 9.55578 13.4445C10.0715 13.9603 10.771 14.25 11.5003 14.25C12.2297 14.25 12.9291 13.9603 13.4449 13.4445C13.9606 12.9288 14.2503 12.2293 14.2503 11.5C14.2503 10.7707 13.9606 10.0712 13.4449 9.55546C12.9291 9.03973 12.2297 8.75 11.5003 8.75ZM11.5003 16.0833C10.2847 16.0833 9.11896 15.6004 8.25942 14.7409C7.39988 13.8814 6.91699 12.7156 6.91699 11.5C6.91699 10.2844 7.39988 9.11864 8.25942 8.25909C9.11896 7.39955 10.2847 6.91667 11.5003 6.91667C12.7159 6.91667 13.8817 7.39955 14.7412 8.25909C15.6008 9.11864 16.0837 10.2844 16.0837 11.5C16.0837 12.7156 15.6008 13.8814 14.7412 14.7409C13.8817 15.6004 12.7159 16.0833 11.5003 16.0833ZM11.5003 4.625C6.91699 4.625 3.00283 7.47583 1.41699 11.5C3.00283 15.5242 6.91699 18.375 11.5003 18.375C16.0837 18.375 19.9978 15.5242 21.5837 11.5C19.9978 7.47583 16.0837 4.625 11.5003 4.625Z" fill="#911A1D"/>
</svg>
