<svg width="26" height="26" viewBox="0 0 26 26" fill="none" xmlns="http://www.w3.org/2000/svg">
<path d="M12.9993 12.4576C12.2811 12.4576 11.5922 12.1723 11.0843 11.6644C10.5764 11.1565 10.291 10.4677 10.291 9.74945C10.291 9.03119 10.5764 8.34235 11.0843 7.83447C11.5922 7.32658 12.2811 7.04126 12.9993 7.04126C13.7176 7.04126 14.4065 7.32658 14.9144 7.83447C15.4223 8.34235 15.7077 9.03119 15.7077 9.74945C15.7077 10.1051 15.6376 10.4573 15.5015 10.7858C15.3654 11.1144 15.1659 11.413 14.9144 11.6644C14.6629 11.9159 14.3644 12.1154 14.0358 12.2515C13.7072 12.3876 13.355 12.4576 12.9993 12.4576ZM12.9993 2.1665C10.9881 2.1665 9.05927 2.96542 7.63712 4.3875C6.21497 5.80958 5.41602 7.73833 5.41602 9.74945C5.41602 15.4367 12.9993 23.8321 12.9993 23.8321C12.9993 23.8321 20.5827 15.4367 20.5827 9.74945C20.5827 7.73833 19.7837 5.80958 18.3616 4.3875C16.9394 2.96542 15.0106 2.1665 12.9993 2.1665Z" fill="white"/>
</svg>
