<svg width="27" height="26" viewBox="0 0 27 26" fill="none" xmlns="http://www.w3.org/2000/svg">
<g clip-path="url(#clip0_632_2967)">
<path fill-rule="evenodd" clip-rule="evenodd" d="M12.1402 2.11426C10.6653 2.11438 9.2118 2.45708 7.901 3.11377C6.59019 3.77046 5.46007 4.7221 4.60493 5.88928C3.74979 7.05647 3.19442 8.40536 2.98517 9.82341C2.77591 11.2415 2.91883 12.6876 3.40201 14.0411C3.88519 15.3945 4.6946 16.6162 5.76273 17.604C6.83086 18.5919 8.12673 19.3174 9.54222 19.7199C10.9577 20.1223 12.4518 20.1902 13.8998 19.9178C15.3478 19.6454 16.7077 19.0406 17.8661 18.1539L21.8401 22.0138C22.0453 22.2063 22.3202 22.3128 22.6055 22.3104C22.8908 22.308 23.1637 22.1969 23.3655 22.0009C23.5672 21.8049 23.6817 21.5399 23.6842 21.2627C23.6866 20.9856 23.577 20.7186 23.3787 20.5193L19.4048 16.6595C20.4799 15.3347 21.1493 13.7428 21.3364 12.0658C21.5235 10.3889 21.2207 8.6946 20.4627 7.17696C19.7047 5.65931 18.5221 4.37959 17.0503 3.48426C15.5785 2.58892 13.8769 2.11414 12.1402 2.11426ZM5.06714 11.098C5.06714 9.27598 5.81234 7.52859 7.13879 6.24023C8.46525 4.95187 10.2643 4.22808 12.1402 4.22808C14.0161 4.22808 15.8151 4.95187 17.1416 6.24023C18.4681 7.52859 19.2133 9.27598 19.2133 11.098C19.2133 12.92 18.4681 14.6674 17.1416 15.9558C15.8151 17.2441 14.0161 17.9679 12.1402 17.9679C10.2643 17.9679 8.46525 17.2441 7.13879 15.9558C5.81234 14.6674 5.06714 12.92 5.06714 11.098Z" fill="#911A1D"/>
</g>
<defs>
<clipPath id="clip0_632_2967">
<rect width="26.1159" height="25.3659" fill="white" transform="translate(0.714844)"/>
</clipPath>
</defs>
</svg>
