<svg width="27" height="26" viewBox="0 0 27 26" fill="none" xmlns="http://www.w3.org/2000/svg">
<g clip-path="url(#clip0_3_232)">
<path fill-rule="evenodd" clip-rule="evenodd" d="M13.7727 15.1624L19.5432 20.8561C19.8494 21.1583 20.2647 21.328 20.6977 21.328C21.1308 21.328 21.5461 21.1583 21.8523 20.8561C22.1585 20.554 22.3305 20.1442 22.3305 19.717C22.3305 19.2897 22.1585 18.8799 21.8523 18.5778L16.0796 12.8841L21.8512 7.1904C22.0027 7.04081 22.1229 6.86322 22.2049 6.66779C22.2869 6.47236 22.3291 6.26291 22.329 6.05139C22.329 5.83988 22.2867 5.63045 22.2046 5.43505C22.1225 5.23966 22.0023 5.06213 21.8506 4.9126C21.699 4.76307 21.519 4.64448 21.321 4.56358C21.1229 4.48268 20.9106 4.44107 20.6963 4.44112C20.4819 4.44117 20.2696 4.48288 20.0716 4.56387C19.8736 4.64486 19.6936 4.76354 19.5421 4.91314L13.7727 10.6068L8.00214 4.91314C7.85164 4.75925 7.67159 4.63648 7.47249 4.55198C7.27339 4.46748 7.05923 4.42295 6.8425 4.421C6.62578 4.41904 6.41083 4.45969 6.21019 4.54057C6.00956 4.62146 5.82726 4.74096 5.67393 4.8921C5.5206 5.04324 5.39932 5.223 5.31715 5.42089C5.23499 5.61878 5.19359 5.83083 5.19537 6.04467C5.19715 6.25851 5.24207 6.46987 5.32752 6.66639C5.41297 6.86292 5.53723 7.04069 5.69306 7.18933L11.4658 12.8841L5.69414 18.5789C5.53832 18.7275 5.41406 18.9053 5.32861 19.1018C5.24316 19.2983 5.19824 19.5097 5.19646 19.7235C5.19468 19.9374 5.23608 20.1494 5.31824 20.3473C5.40041 20.5452 5.52169 20.725 5.67502 20.8761C5.82835 21.0272 6.01064 21.1467 6.21128 21.2276C6.41191 21.3085 6.62687 21.3492 6.84359 21.3472C7.06032 21.3453 7.27448 21.3007 7.47358 21.2162C7.67268 21.1317 7.85273 21.009 8.00322 20.8551L13.7727 15.1624Z" fill="#911A1D"/>
</g>
<defs>
<clipPath id="clip0_3_232">
<rect width="26.1159" height="25.7682" fill="white" transform="translate(0.714722)"/>
</clipPath>
</defs>
</svg>
