<svg width="24" height="24" viewBox="0 0 24 24" fill="none" xmlns="http://www.w3.org/2000/svg">
<path d="M12.7847 17.581C12.8896 17.6855 12.9728 17.8097 13.0296 17.9464C13.0863 18.0832 13.1156 18.2298 13.1156 18.3779C13.1156 18.5259 13.0863 18.6725 13.0296 18.8093C12.9728 18.946 12.8896 19.0702 12.7847 19.1747L12.2278 19.7316C11.1726 20.7868 9.74138 21.3797 8.24906 21.3797C6.75673 21.3797 5.32554 20.7868 4.27031 19.7316C3.21508 18.6764 2.62225 17.2452 2.62225 15.7529C2.62225 14.2605 3.21508 12.8293 4.27031 11.7741L6.53156 9.51379C7.54545 8.49739 8.9096 7.90713 10.3446 7.8639C11.7796 7.82068 13.1768 8.32776 14.25 9.28129C14.3608 9.37978 14.4511 9.49913 14.5158 9.63253C14.5805 9.76593 14.6182 9.91076 14.6269 10.0587C14.6356 10.2067 14.6151 10.355 14.5665 10.4951C14.5179 10.6351 14.4422 10.7642 14.3437 10.875C14.2453 10.9858 14.1259 11.0762 13.9925 11.1408C13.8591 11.2055 13.7143 11.2433 13.5663 11.252C13.4183 11.2607 13.27 11.2402 13.13 11.1916C12.9899 11.143 12.8608 11.0673 12.75 10.9688C12.1064 10.3972 11.2688 10.0931 10.4084 10.1188C9.54805 10.1444 8.72998 10.4978 8.12156 11.1066L5.86218 13.3641C5.22914 13.9971 4.8735 14.8557 4.8735 15.751C4.8735 16.6462 5.22914 17.5048 5.86218 18.1379C6.49522 18.7709 7.3538 19.1265 8.24906 19.1265C9.14431 19.1265 10.0029 18.7709 10.6359 18.1379L11.1928 17.581C11.2973 17.4764 11.4214 17.3934 11.5579 17.3368C11.6945 17.2802 11.8409 17.251 11.9887 17.251C12.1366 17.251 12.283 17.2802 12.4195 17.3368C12.5561 17.3934 12.6802 17.4764 12.7847 17.581ZM19.7297 4.26848C18.6736 3.21487 17.2427 2.62317 15.7509 2.62317C14.2591 2.62317 12.8283 3.21487 11.7722 4.26848L11.2153 4.82535C11.004 5.0367 10.8852 5.32334 10.8852 5.62223C10.8852 5.92111 11.004 6.20776 11.2153 6.4191C11.4267 6.63045 11.7133 6.74918 12.0122 6.74918C12.3111 6.74918 12.5977 6.63045 12.8091 6.4191L13.3659 5.86223C13.999 5.22919 14.8576 4.87355 15.7528 4.87355C16.6481 4.87355 17.5066 5.22919 18.1397 5.86223C18.7727 6.49527 19.1284 7.35385 19.1284 8.2491C19.1284 9.14435 18.7727 10.0029 18.1397 10.636L15.8794 12.8972C15.2704 13.5058 14.4519 13.8587 13.5913 13.8836C12.7307 13.9085 11.8932 13.6036 11.25 13.0313C11.1392 12.9328 11.0101 12.8571 10.87 12.8085C10.73 12.7599 10.5817 12.7394 10.4337 12.7481C10.2857 12.7568 10.1409 12.7946 10.0075 12.8592C9.87409 12.9239 9.75473 13.0142 9.65624 13.125C9.55775 13.2358 9.48205 13.365 9.43346 13.505C9.38487 13.6451 9.36434 13.7933 9.37304 13.9413C9.38175 14.0893 9.41952 14.2342 9.48419 14.3676C9.54887 14.5009 9.63919 14.6203 9.74999 14.7188C10.8225 15.6721 12.2187 16.1795 13.653 16.1372C15.0874 16.0948 16.4513 15.5059 17.4656 14.491L19.7269 12.2307C20.7817 11.1748 21.3745 9.74356 21.375 8.25109C21.3755 6.75862 20.7838 5.32693 19.7297 4.27035V4.26848Z" fill="white"/>
</svg>
