<svg width="26" height="26" viewBox="0 0 26 26" fill="none" xmlns="http://www.w3.org/2000/svg">
<path d="M23.5503 17.7807C23.3692 19.1568 22.6934 20.42 21.649 21.3342C20.6046 22.2485 19.2631 22.7514 17.875 22.7489C9.81095 22.7489 3.25001 16.1883 3.25001 8.12462C3.24752 6.73663 3.75039 5.39519 4.66471 4.35085C5.57902 3.30651 6.84224 2.63069 8.21845 2.4496C8.56645 2.40711 8.91887 2.47831 9.22309 2.65255C9.52731 2.8268 9.76701 3.09476 9.90642 3.41643L12.0514 8.20485V8.21704C12.1581 8.46327 12.2022 8.7321 12.1797 8.99951C12.1572 9.26693 12.0688 9.52461 11.9224 9.74954C11.9041 9.77696 11.8849 9.80235 11.8645 9.82774L9.75001 12.3342C10.5107 13.8799 12.1276 15.4824 13.6937 16.2451L16.1657 14.1419C16.19 14.1215 16.2154 14.1025 16.2419 14.085C16.4666 13.9351 16.7252 13.8436 16.9942 13.8188C17.2632 13.794 17.5342 13.8366 17.7826 13.9428L17.7958 13.9489L22.5804 16.0928C22.9027 16.2317 23.1713 16.4712 23.3461 16.7754C23.5209 17.0797 23.5926 17.4323 23.5503 17.7807Z" fill="white"/>
</svg>
