<svg width="60" height="60" viewBox="0 0 60 60" fill="none" xmlns="http://www.w3.org/2000/svg">
<path d="M53.4799 44.6496C52.5086 43.6933 40.7393 39.1408 38.6036 38.2821C36.4793 37.4383 35.6318 35.1002 35.6318 35.1002C35.6318 35.1002 34.6755 35.629 34.6755 34.144C34.6755 32.6571 35.6318 35.1002 36.588 29.3665C36.588 29.3665 39.2411 28.6221 38.7143 22.4665H38.0768C38.0768 22.4665 39.6705 15.8852 38.0768 13.6577C36.4774 11.4302 35.8511 9.94522 32.3393 8.88022C28.833 7.81709 30.108 8.02897 27.5618 8.13772C25.0118 8.24459 22.8893 9.62459 22.8893 10.3652C22.8893 10.3652 21.2955 10.4721 20.6618 11.1096C20.0243 11.7471 18.963 14.7171 18.963 15.4596C18.963 16.2021 19.4936 21.1971 20.0243 22.2546L19.3924 22.4608C18.8618 28.6183 21.5149 29.3646 21.5149 29.3646C22.4711 35.0983 23.4274 32.6552 23.4274 34.1421C23.4274 35.6271 22.4711 35.0983 22.4711 35.0983C22.4711 35.0983 21.6218 37.4346 19.4993 38.2802C17.3768 39.1296 5.59427 43.6933 4.63615 44.6477C3.6799 45.6227 3.78677 50.0777 3.78677 50.0777H26.3543L28.0005 43.5902L26.538 42.1277L29.0561 39.6058L31.5743 42.1258L30.1118 43.5883L31.758 50.0758H54.3255C54.3255 50.0758 54.4436 45.6171 53.4761 44.644L53.4799 44.6496Z" fill="white"/>
</svg>
