<svg width="23" height="23" viewBox="0 0 23 23" fill="none" xmlns="http://www.w3.org/2000/svg">
<path d="M13.359 12.0115H12.859V12.5115V19.8138H10.1873V12.5115V12.0115H9.68733H7.43359V9.33989H9.68733H10.1873V8.83989V6.26974C10.1873 4.98182 10.5925 4.04262 11.2314 3.42456C11.8732 2.80361 12.804 2.45557 13.9492 2.45557C14.7817 2.45557 15.5795 2.49972 16.0717 2.5383V4.66825H15.1948C14.2162 4.66825 13.5427 4.90446 13.1737 5.45234C13.0003 5.70988 12.9264 5.99332 12.892 6.25267C12.8589 6.50209 12.8589 6.76303 12.859 6.98863L12.859 7.00407V8.83989V9.33989H13.359H15.9313L15.2634 12.0115H13.359Z" fill="#911A1D" stroke="#911A1D"/>
</svg>
