<svg width="60" height="60" viewBox="0 0 60 60" fill="none" xmlns="http://www.w3.org/2000/svg">
<path fill-rule="evenodd" clip-rule="evenodd" d="M53.75 21.25C53.75 17.74 53.75 15.9825 52.9075 14.7225C52.5426 14.1763 52.0737 13.7074 51.5275 13.3425C50.425 12.605 48.9425 12.5125 46.24 12.5025C46.25 13.23 46.25 13.9925 46.25 14.7775V18.125H48.75C49.2473 18.125 49.7242 18.3225 50.0758 18.6742C50.4275 19.0258 50.625 19.5027 50.625 20C50.625 20.4973 50.4275 20.9742 50.0758 21.3258C49.7242 21.6775 49.2473 21.875 48.75 21.875H46.25V25.625H48.75C49.2473 25.625 49.7242 25.8225 50.0758 26.1742C50.4275 26.5258 50.625 27.0027 50.625 27.5C50.625 27.9973 50.4275 28.4742 50.0758 28.8258C49.7242 29.1775 49.2473 29.375 48.75 29.375H46.25V33.125H48.75C49.2473 33.125 49.7242 33.3225 50.0758 33.6742C50.4275 34.0258 50.625 34.5027 50.625 35C50.625 35.4973 50.4275 35.9742 50.0758 36.3258C49.7242 36.6775 49.2473 36.875 48.75 36.875H46.25V53.125H42.5V15C42.5 10.285 42.5 7.93 41.035 6.465C39.57 5 37.215 5 32.5 5H27.5C22.785 5 20.43 5 18.965 6.465C17.5 7.93 17.5 10.285 17.5 15V53.125H13.75V36.875H11.25C10.7527 36.875 10.2758 36.6775 9.92417 36.3258C9.57254 35.9742 9.375 35.4973 9.375 35C9.375 34.5027 9.57254 34.0258 9.92417 33.6742C10.2758 33.3225 10.7527 33.125 11.25 33.125H13.75V29.375H11.25C10.7527 29.375 10.2758 29.1775 9.92417 28.8258C9.57254 28.4742 9.375 27.9973 9.375 27.5C9.375 27.0027 9.57254 26.5258 9.92417 26.1742C10.2758 25.8225 10.7527 25.625 11.25 25.625H13.75V21.875H11.25C10.7527 21.875 10.2758 21.6775 9.92417 21.3258C9.57254 20.9742 9.375 20.4973 9.375 20C9.375 19.5027 9.57254 19.0258 9.92417 18.6742C10.2758 18.3225 10.7527 18.125 11.25 18.125H13.75V14.775C13.75 13.9925 13.75 13.23 13.76 12.5C11.0575 12.5125 9.575 12.605 8.4725 13.3425C7.92632 13.7074 7.45739 14.1763 7.0925 14.7225C6.25 15.9825 6.25 17.74 6.25 21.25V53.125H5C4.50272 53.125 4.02581 53.3225 3.67417 53.6742C3.32254 54.0258 3.125 54.5027 3.125 55C3.125 55.4973 3.32254 55.9742 3.67417 56.3258C4.02581 56.6775 4.50272 56.875 5 56.875H55C55.4973 56.875 55.9742 56.6775 56.3258 56.3258C56.6775 55.9742 56.875 55.4973 56.875 55C56.875 54.5027 56.6775 54.0258 56.3258 53.6742C55.9742 53.3225 55.4973 53.125 55 53.125H53.75V21.25ZM30 10.625C30.4973 10.625 30.9742 10.8225 31.3258 11.1742C31.6775 11.5258 31.875 12.0027 31.875 12.5V15.625H35C35.4973 15.625 35.9742 15.8225 36.3258 16.1742C36.6775 16.5258 36.875 17.0027 36.875 17.5C36.875 17.9973 36.6775 18.4742 36.3258 18.8258C35.9742 19.1775 35.4973 19.375 35 19.375H31.875V22.5C31.875 22.9973 31.6775 23.4742 31.3258 23.8258C30.9742 24.1775 30.4973 24.375 30 24.375C29.5027 24.375 29.0258 24.1775 28.6742 23.8258C28.3225 23.4742 28.125 22.9973 28.125 22.5V19.375H25C24.5027 19.375 24.0258 19.1775 23.6742 18.8258C23.3225 18.4742 23.125 17.9973 23.125 17.5C23.125 17.0027 23.3225 16.5258 23.6742 16.1742C24.0258 15.8225 24.5027 15.625 25 15.625H28.125V12.5C28.125 12.0027 28.3225 11.5258 28.6742 11.1742C29.0258 10.8225 29.5027 10.625 30 10.625ZM23.125 30C23.125 29.5027 23.3225 29.0258 23.6742 28.6742C24.0258 28.3225 24.5027 28.125 25 28.125H35C35.4973 28.125 35.9742 28.3225 36.3258 28.6742C36.6775 29.0258 36.875 29.5027 36.875 30C36.875 30.4973 36.6775 30.9742 36.3258 31.3258C35.9742 31.6775 35.4973 31.875 35 31.875H25C24.5027 31.875 24.0258 31.6775 23.6742 31.3258C23.3225 30.9742 23.125 30.4973 23.125 30ZM23.125 37.5C23.125 37.0027 23.3225 36.5258 23.6742 36.1742C24.0258 35.8225 24.5027 35.625 25 35.625H35C35.4973 35.625 35.9742 35.8225 36.3258 36.1742C36.6775 36.5258 36.875 37.0027 36.875 37.5C36.875 37.9973 36.6775 38.4742 36.3258 38.8258C35.9742 39.1775 35.4973 39.375 35 39.375H25C24.5027 39.375 24.0258 39.1775 23.6742 38.8258C23.3225 38.4742 23.125 37.9973 23.125 37.5ZM30 45.625C30.4973 45.625 30.9742 45.8225 31.3258 46.1742C31.6775 46.5258 31.875 47.0027 31.875 47.5V53.125H28.125V47.5C28.125 47.0027 28.3225 46.5258 28.6742 46.1742C29.0258 45.8225 29.5027 45.625 30 45.625Z" fill="white"/>
</svg>
